<?xml version="1.0" standalone="no"?>
<!DOCTYPE svg PUBLIC "-//W3C//DTD SVG 20010904//EN"
 "http://www.w3.org/TR/2001/REC-SVG-20010904/DTD/svg10.dtd">
<svg version="1.0" xmlns="http://www.w3.org/2000/svg"
 width="512.000000pt" height="512.000000pt" viewBox="0 0 512.000000 512.000000"
 preserveAspectRatio="xMidYMid meet">

<g transform="translate(0.000000,512.000000) scale(0.100000,-0.100000)"
fill="#000000" stroke="none">
<path d="M1387 3177 c-14 -38 10 -43 232 -46 l44 -1 -40 -37 c-69 -65 -81
-155 -30 -233 30 -43 97 -80 148 -80 106 1 190 98 176 204 l-5 41 35 -40 c51
-57 90 -147 105 -240 11 -69 16 -80 33 -80 42 0 28 140 -24 251 -60 127 -173
215 -327 254 -96 25 -338 29 -347 7z"/>
<path d="M3410 3174 c-194 -42 -339 -184 -380 -374 -6 -30 -10 -73 -8 -95 2
-32 7 -40 23 -40 17 0 22 11 33 80 15 93 54 183 105 240 l35 40 -5 -41 c-10
-79 31 -153 101 -185 54 -24 100 -24 154 2 116 56 134 216 34 299 l-37 30 45
1 c231 4 250 7 237 43 -5 14 -27 16 -139 15 -74 0 -162 -7 -198 -15z"/>
<path d="M2540 2134 l0 -251 -80 -184 c-44 -101 -79 -193 -78 -204 2 -12 11
-20 23 -20 15 0 31 28 80 141 33 77 65 151 71 164 9 21 17 7 81 -141 55 -128
74 -165 90 -167 11 -2 23 3 26 11 3 8 -33 101 -79 208 l-84 194 0 250 0 250
-25 0 -25 0 0 -251z"/>
</g>
</svg>
